<?xml version="1.0" encoding="utf-8"?>
<!-- Generator: Adobe Illustrator 19.0.0, SVG Export Plug-In . SVG Version: 6.00 Build 0)  -->
<svg version="1.1" id="layer" xmlns="http://www.w3.org/2000/svg" xmlns:xlink="http://www.w3.org/1999/xlink" x="0px" y="0px"
	 viewBox="-153 -46 652 652" style="enable-background:new -153 -46 652 652;" xml:space="preserve">
<style type="text/css">
	.st0{fill:#1A1AAA;}
	.st1{fill:#00A04B;}
</style>
<g id="Thalia-Logo">
	<g id="logo" transform="translate(0.000000, -1.000000)">
		<path id="Shape" class="st0" d="M430.3,320.8c-9.9,0-17.8-8.1-17.8-17.8c0-9.9,8.1-17.8,17.8-17.8c9.9,0,17.8,8.1,17.8,17.8
			C448.1,312.7,440,320.8,430.3,320.8z M448.4,267.3v5.8c-5.8-4.6-12.7-7.6-20.6-7.6c-20.6,0-37.2,16.7-37.2,37.2
			c0,20.6,16.7,37.2,37.2,37.2c7.9,0,14.8-3.2,20.6-8.1v6.2h20.4v-70.8H448.4z M376.9,338.4h-21.3v-71h21.3V338.4z M366.2,232.9
			c6.7,0,12,5.3,12,12c0,6.5-5.3,12-12,12c-6.5,0-11.8-5.3-11.8-12C354.4,238.2,359.8,232.9,366.2,232.9z M334.3,338.4H313V235h21.3
			V338.4L334.3,338.4z M253.6,320.8c-9.9,0-17.8-8.1-17.8-17.8c0-9.9,8.1-17.8,17.8-17.8c9.9,0,17.8,8.1,17.8,17.8
			C271.4,312.7,263.3,320.8,253.6,320.8z M271.6,267.3v5.8c-5.8-4.6-12.7-7.6-20.6-7.6c-20.6,0-37.2,16.7-37.2,37.2
			c0,20.6,16.7,37.2,37.2,37.2c7.9,0,14.8-3.2,20.6-8.1v6.2H292v-70.8H271.6z M171.9,265.5c-8.3,0-15,2.3-19.9,6V235h-21.3v103.4
			H152v-39.8c0-7.6,6-13.6,13.6-13.6c7.6,0,13.6,6,13.6,13.6v39.8h21.3v-44.4C200.6,278.2,187.6,265.5,171.9,265.5z M89.3,255.5
			v82.8H66.4v-82.8H36.1V235h83.5v20.6H89.3z"/>
		<path id="Path" class="st1" d="M-99.5,266.9c10.4,0.9,26.4-0.9,44.2-7.9c3.5-1.4,7.4-3,12.3-4.4c13.6-4.2,16.2-3,16.2-3
			c-1.2-3.5-5.6-3.2-14.6-1.4c-9,1.6-13.6,4.4-22.9,5.6s-18.3-6.9-16.9-16c0,0,12.3,4.4,26.8-2.3c-5.1,0-9.5-2.1-7.6-9.5
			c9.7,9.9,21.3-3.5,31.2-11.6c1.2-0.9,2.3-1.9,3.7-2.5c1.4-0.9,2.8-1.6,4.2-2.1c0.2-0.2,0.7-0.2,1.2-0.5c0.5-0.2,6.2-2.5,13.9-2.3
			c2.1,0,3.9,0.5,5.8,1.9c0.9,0.9,0.7,1.6,0.7,2.3c4.9,0.7,8.6,7.2,8.6,11.6c1.9,1.6,3.7,3,5.8,4.2c0.2,0.2,0.2,0.2,0.2,0.7
			c0,1.2-0.9,2.5-1.9,3.2c-0.2,0-0.2,0.2,0,0.5l0.2,0.2c1.9,0.7,1.2,2.1,0.2,2.5c0.9,0.5,1.2,1.4,0.5,2.1c-0.2,0.2-0.5,0.7-0.5,0.9
			c0,0.7,1.2,0.9,1.4,2.3c0.2,1.2,0.2,2.1-0.9,3.2c-0.7,0.7-1.9,0.9-3,0.9c-3,0.2-6,0.2-10.2,3c-2.1,1.6-3.2,3.2-3.9,4.9
			c-0.2,0.7-0.5,1.4-0.5,2.3c-0.7,4.6,0.5,7.6,0.7,8.1v0.2c2.8,8.8-1.6,20.6-14.3,31.7c-6.9,6-28.5,23.6-24.1,47
			c0,0-48.4-16.4-34.7-35.4c3.9-5.6,12.3-9,22-13.4l0.7-0.2c10.2-4.6,17.1-13.4,13.4-19c-0.9-1.2-2.1-1.4-3.2-1.2
			c-10.4,2.3-38.6,1.9-54.6,0.2c-1.6-0.2-3.2-0.2-4.6-0.5h-2.1c-3,0-6.2-0.5-8.8-1.9c-1.9-1.4-3.9-2.3-7.2-3
			c-1.6-0.2-3.7-0.5-3.7-1.6c0.2-2.8,5.1-0.5,8.3-0.7c0.2,0,0.2-0.5-0.2-0.7c-6.2-2.5-9.7-5.6-13.4-10.4c-0.5-0.9,0.7-1.4,0.9-1.2
			c7.2,6.2,15,9.7,24.5,11.8C-104.6,266.2-101.3,266.7-99.5,266.9z"/>
	</g>
</g>
</svg>
